<mxfile host="65bd71144e">
    <diagram id="rFmOCMcaIkLP6CqxaiLA" name="Page-1">
        <mxGraphModel dx="898" dy="526" grid="1" gridSize="10" guides="1" tooltips="1" connect="1" arrows="1" fold="1" page="1" pageScale="1" pageWidth="850" pageHeight="1100" math="0" shadow="0">
            <root>
                <mxCell id="0"/>
                <mxCell id="1" parent="0"/>
                <mxCell id="2" value="OpenShift" style="swimlane;fillColor=#f8cecc;strokeColor=#b85450;" parent="1" vertex="1">
                    <mxGeometry x="20" y="10" width="801" height="516" as="geometry"/>
                </mxCell>
                <mxCell id="3" value="Order-solution" style="swimlane;" parent="2" vertex="1">
                    <mxGeometry x="10" y="30" width="480" height="180" as="geometry"/>
                </mxCell>
                <mxCell id="4" value="Order Management Producer" style="rounded=0;whiteSpace=wrap;html=1;fillColor=#d5e8d4;strokeColor=#82b366;" parent="3" vertex="1">
                    <mxGeometry x="10" y="50" width="120" height="60" as="geometry"/>
                </mxCell>
                <mxCell id="33" value="Batch set to 1&lt;br&gt;Idempotence enabled&lt;br&gt;Record with customer id as key" style="shape=callout;whiteSpace=wrap;html=1;perimeter=calloutPerimeter;fillColor=#f5f5f5;fontColor=#333333;strokeColor=#666666;position2=0;" parent="3" vertex="1">
                    <mxGeometry x="130" y="30" width="280" height="80" as="geometry"/>
                </mxCell>
                <mxCell id="10" value="event-streams cluster" style="swimlane;verticalAlign=middle;textDirection=ltr;horizontal=1;" parent="2" vertex="1">
                    <mxGeometry x="11" y="230" width="790" height="286" as="geometry">
                        <mxRectangle x="11" y="320" width="160" height="23" as="alternateBounds"/>
                    </mxGeometry>
                </mxCell>
                <mxCell id="19" value="orders- partition 0&lt;br&gt;" style="shape=cylinder3;whiteSpace=wrap;html=1;boundedLbl=1;backgroundOutline=1;size=4;rotation=90;align=center;horizontal=0;" parent="10" vertex="1">
                    <mxGeometry x="203" y="-34" width="27" height="216" as="geometry"/>
                </mxCell>
                <mxCell id="26" value="orders- partition 2" style="shape=cylinder3;whiteSpace=wrap;html=1;boundedLbl=1;backgroundOutline=1;size=4;rotation=90;align=center;horizontal=0;" parent="10" vertex="1">
                    <mxGeometry x="203" y="34" width="27" height="216" as="geometry"/>
                </mxCell>
                <mxCell id="25" value="orders- partition 1" style="shape=cylinder3;whiteSpace=wrap;html=1;boundedLbl=1;backgroundOutline=1;size=4;rotation=90;align=center;horizontal=0;" parent="10" vertex="1">
                    <mxGeometry x="203" width="27" height="216" as="geometry"/>
                </mxCell>
                <mxCell id="31" value="" style="shape=callout;whiteSpace=wrap;html=1;perimeter=calloutPerimeter;position2=0;fillColor=#f5f5f5;fontColor=#333333;strokeColor=#666666;" parent="10" vertex="1">
                    <mxGeometry x="329" y="-60" width="381" height="140" as="geometry"/>
                </mxCell>
                <mxCell id="29" value="Key: customerID=CUST_01&lt;br&gt;Value: {order payload&amp;nbsp; id 2}" style="rounded=0;whiteSpace=wrap;html=1;align=left;" parent="10" vertex="1">
                    <mxGeometry x="349" y="-20" width="219" height="30" as="geometry"/>
                </mxCell>
                <mxCell id="30" value="Key: customerID=CUST_01&lt;br&gt;Value: {order payload&amp;nbsp; &amp;nbsp;id 1}" style="rounded=0;whiteSpace=wrap;html=1;align=left;" parent="10" vertex="1">
                    <mxGeometry x="349" y="10" width="219" height="30" as="geometry"/>
                </mxCell>
                <mxCell id="32" value="Key: customerID=CUST_01&lt;br&gt;Value: {order payload&amp;nbsp; id 3}" style="rounded=0;whiteSpace=wrap;html=1;align=left;" parent="10" vertex="1">
                    <mxGeometry x="349" y="-50" width="219" height="30" as="geometry"/>
                </mxCell>
                <mxCell id="34" value="" style="shape=curlyBracket;whiteSpace=wrap;html=1;rounded=1;flipH=1;rotation=90;" parent="10" vertex="1">
                    <mxGeometry x="203.99" y="115.21" width="20" height="210" as="geometry"/>
                </mxCell>
                <mxCell id="36" value="Retention time" style="text;html=1;strokeColor=none;fillColor=none;align=center;verticalAlign=middle;whiteSpace=wrap;rounded=0;" parent="10" vertex="1">
                    <mxGeometry x="153.99" y="241" width="120" height="30" as="geometry"/>
                </mxCell>
                <mxCell id="37" value="orders- partition 3" style="shape=cylinder3;whiteSpace=wrap;html=1;boundedLbl=1;backgroundOutline=1;size=4;rotation=90;align=center;horizontal=0;" vertex="1" parent="10">
                    <mxGeometry x="203.99" y="70" width="27" height="216" as="geometry"/>
                </mxCell>
                <mxCell id="39" value="Key: customerID=CUST_01&lt;br&gt;Value: {order payload&amp;nbsp; id 4}" style="rounded=0;whiteSpace=wrap;html=1;align=left;" vertex="1" parent="10">
                    <mxGeometry x="349" y="163" width="219" height="30" as="geometry"/>
                </mxCell>
                <mxCell id="21" style="edgeStyle=orthogonalEdgeStyle;html=1;entryX=0.5;entryY=1;entryDx=0;entryDy=0;entryPerimeter=0;" parent="2" source="4" target="19" edge="1">
                    <mxGeometry relative="1" as="geometry"/>
                </mxCell>
                <mxCell id="27" style="edgeStyle=orthogonalEdgeStyle;html=1;entryX=0.5;entryY=1;entryDx=0;entryDy=0;entryPerimeter=0;exitX=0.5;exitY=1;exitDx=0;exitDy=0;" parent="2" source="4" target="25" edge="1">
                    <mxGeometry relative="1" as="geometry">
                        <mxPoint x="90" y="150" as="sourcePoint"/>
                        <mxPoint x="129.5" y="314" as="targetPoint"/>
                    </mxGeometry>
                </mxCell>
                <mxCell id="28" style="edgeStyle=orthogonalEdgeStyle;html=1;entryX=0.5;entryY=1;entryDx=0;entryDy=0;entryPerimeter=0;exitX=0.5;exitY=1;exitDx=0;exitDy=0;" parent="2" source="4" target="26" edge="1">
                    <mxGeometry relative="1" as="geometry">
                        <mxPoint x="90" y="150" as="sourcePoint"/>
                        <mxPoint x="129.5" y="348" as="targetPoint"/>
                    </mxGeometry>
                </mxCell>
                <mxCell id="38" style="edgeStyle=orthogonalEdgeStyle;html=1;entryX=0.5;entryY=1;entryDx=0;entryDy=0;entryPerimeter=0;exitX=0.5;exitY=1;exitDx=0;exitDy=0;" edge="1" parent="2" source="4" target="37">
                    <mxGeometry relative="1" as="geometry">
                        <mxPoint x="90" y="150" as="sourcePoint"/>
                        <mxPoint x="129.5" y="382" as="targetPoint"/>
                    </mxGeometry>
                </mxCell>
            </root>
        </mxGraphModel>
    </diagram>
</mxfile>